<?xml version="1.0" standalone="no"?>
<!DOCTYPE svg PUBLIC "-//W3C//DTD SVG 20010904//EN"
 "http://www.w3.org/TR/2001/REC-SVG-20010904/DTD/svg10.dtd">
<svg version="1.0" xmlns="http://www.w3.org/2000/svg"
 width="800.000000pt" height="633.000000pt" viewBox="0 0 800.000000 633.000000"
 preserveAspectRatio="xMidYMid meet">

<g transform="translate(0.000000,633.000000) scale(0.100000,-0.100000)"
fill="#000000" stroke="none">
<path d="M1034 6155 c-47 -32 -97 -169 -119 -325 -8 -58 -21 -137 -29 -175 -8
-39 -17 -108 -21 -155 -4 -47 -24 -159 -45 -250 -54 -229 -115 -556 -151 -805
-16 -115 -45 -282 -64 -370 -61 -284 -105 -517 -105 -556 0 -22 -11 -96 -24
-166 -34 -177 -34 -178 -51 -362 -9 -90 -20 -182 -25 -205 -5 -23 -23 -140
-40 -261 -37 -261 -71 -465 -110 -670 -16 -82 -37 -219 -46 -302 -18 -170 -13
-203 35 -227 45 -24 243 -84 326 -100 361 -69 514 -101 636 -131 77 -19 189
-41 247 -50 111 -16 298 -54 512 -105 174 -41 1093 -224 1335 -265 110 -19
281 -43 380 -54 99 -11 234 -30 300 -41 268 -44 814 -92 1200 -105 333 -11
496 -26 735 -66 129 -21 269 -48 310 -60 41 -11 140 -34 220 -50 80 -16 192
-40 250 -54 58 -13 151 -31 208 -40 94 -15 108 -15 157 -1 43 13 55 22 69 50
9 19 16 43 16 54 0 11 11 63 25 114 14 51 25 109 25 129 0 19 20 134 44 255
24 120 49 262 56 314 6 52 24 174 40 270 41 246 67 440 75 545 3 50 15 135 25
190 25 136 48 328 60 520 10 154 39 394 79 656 11 69 22 186 26 260 7 150 29
374 50 524 8 55 21 159 29 230 9 72 22 191 30 265 9 74 20 198 26 275 6 77 18
167 26 200 9 33 17 76 18 96 0 20 7 43 14 52 7 8 15 30 18 49 11 66 -60 116
-176 123 -25 2 -99 6 -165 10 -66 4 -199 20 -295 35 -558 92 -1063 166 -1300
190 -58 6 -150 20 -205 30 -55 11 -255 33 -445 50 -398 35 -475 45 -585 70
-102 24 -435 75 -585 90 -63 6 -151 17 -195 25 -117 20 -240 33 -422 45 -90 6
-206 19 -259 30 -53 11 -133 20 -178 20 -44 0 -151 7 -236 15 -85 8 -279 21
-430 30 -274 15 -377 25 -465 45 -25 6 -110 17 -188 25 -78 9 -149 17 -157 20
-8 3 -95 14 -192 24 -98 11 -186 25 -197 31 -28 14 -73 12 -97 -5z m251 -200
c72 -9 157 -20 190 -25 33 -5 112 -14 175 -20 63 -7 154 -20 202 -31 86 -19
193 -28 578 -49 107 -6 263 -18 345 -26 83 -7 184 -14 225 -14 41 0 90 -4 109
-10 57 -16 179 -30 391 -45 113 -8 252 -24 310 -34 58 -11 143 -22 190 -26 47
-4 139 -15 205 -25 66 -10 158 -24 205 -30 47 -6 119 -20 160 -30 95 -24 253
-44 545 -70 127 -11 282 -25 345 -31 63 -5 140 -16 170 -24 30 -8 96 -19 145
-24 50 -6 155 -17 235 -26 80 -9 258 -34 395 -56 138 -22 340 -53 450 -69 110
-17 263 -41 340 -54 77 -14 202 -28 278 -31 114 -6 137 -10 133 -21 -32 -83
-66 -322 -66 -462 0 -37 -5 -94 -10 -127 -5 -33 -21 -154 -35 -270 -14 -115
-34 -280 -46 -365 -11 -85 -24 -240 -29 -345 -5 -105 -18 -245 -30 -314 -32
-186 -69 -494 -80 -659 -13 -200 -27 -324 -51 -445 -10 -56 -24 -156 -29 -222
-13 -147 -34 -305 -65 -490 -13 -77 -33 -210 -45 -295 -12 -85 -30 -195 -41
-245 -30 -134 -69 -351 -69 -382 0 -14 -9 -62 -21 -105 -21 -78 -21 -78 -55
-78 -18 0 -98 15 -176 34 -79 19 -195 44 -258 56 -63 12 -173 37 -245 55 -120
32 -503 95 -655 109 -36 4 -180 11 -320 16 -509 19 -1043 63 -1279 105 -46 8
-177 26 -290 40 -113 14 -262 35 -331 46 -167 26 -1208 233 -1335 264 -145 36
-413 90 -540 110 -60 9 -177 34 -260 55 -82 21 -247 57 -365 80 -328 62 -350
66 -429 90 l-74 23 7 86 c4 47 22 167 41 266 46 245 70 387 100 605 14 102 34
235 45 295 10 61 24 169 30 240 6 72 22 195 36 275 14 80 32 195 39 255 8 61
42 243 75 405 34 162 74 387 91 500 34 241 66 411 126 685 25 110 51 247 59
305 8 58 24 159 35 225 11 66 26 163 34 216 15 101 31 149 49 149 6 0 70 -7
141 -15z"/>
<path d="M1535 5438 c-31 -14 -48 -48 -50 -98 -1 -25 -19 -118 -39 -208 -26
-118 -36 -187 -36 -250 0 -49 -9 -128 -21 -182 -35 -163 -59 -301 -74 -420 -8
-63 -30 -189 -50 -280 -20 -91 -40 -214 -45 -275 -5 -60 -20 -168 -34 -240
-13 -71 -27 -159 -31 -195 -4 -36 -15 -110 -25 -165 -10 -55 -21 -138 -25
-185 -9 -116 -42 -365 -61 -453 -23 -110 -62 -353 -69 -435 -4 -39 -11 -75
-16 -78 -15 -9 -10 -78 6 -101 18 -25 71 -43 130 -43 22 -1 87 -14 145 -31 58
-16 141 -37 185 -45 44 -9 127 -26 185 -40 58 -13 161 -28 230 -34 69 -6 161
-17 205 -25 44 -8 134 -19 200 -25 151 -14 231 -28 530 -91 332 -70 370 -77
487 -88 57 -6 231 -35 388 -65 157 -30 328 -57 380 -61 115 -8 254 -28 415
-60 66 -13 152 -27 190 -30 141 -13 232 -27 328 -51 90 -23 267 -46 557 -74
127 -13 465 -65 520 -81 19 -6 91 -17 160 -25 69 -9 142 -18 163 -21 31 -4 43
-1 62 17 29 27 40 71 26 98 -8 15 -6 23 9 37 11 10 23 34 26 54 4 19 15 53 24
76 10 22 25 94 34 160 10 66 30 192 46 280 15 88 33 192 40 230 6 39 18 95 26
126 8 31 19 103 24 160 6 57 22 158 36 224 14 66 33 165 44 220 25 137 67 556
75 750 6 148 20 284 60 588 12 95 14 187 10 450 -4 305 -6 333 -23 357 -20 27
-70 43 -182 60 -36 6 -94 17 -130 25 -36 8 -96 15 -135 15 -38 0 -137 9 -220
20 -82 11 -195 20 -251 20 -151 0 -396 26 -551 59 -76 16 -165 32 -198 36 -33
4 -141 22 -240 41 -244 45 -334 58 -698 98 -339 38 -538 57 -862 81 -360 27
-934 94 -1253 146 -70 11 -172 22 -227 25 -255 10 -382 11 -400 2z m525 -193
c91 -14 269 -39 490 -70 176 -24 660 -73 945 -95 516 -40 1080 -104 1359 -155
105 -19 241 -42 301 -50 61 -9 147 -25 191 -35 172 -40 436 -70 623 -70 69 0
169 -7 221 -15 52 -8 142 -17 200 -20 58 -4 147 -16 199 -28 l94 -22 -6 -145
c-4 -94 -18 -223 -42 -365 -45 -280 -52 -328 -69 -505 -23 -227 -81 -655 -122
-885 -13 -77 -24 -154 -24 -172 0 -32 -38 -250 -66 -381 l-15 -72 -47 40 c-26
22 -78 76 -117 119 -38 43 -128 130 -200 193 -71 64 -145 134 -163 157 -18 23
-101 100 -185 171 -154 131 -429 396 -593 570 -103 110 -168 164 -353 291
-207 142 -293 168 -556 169 -171 0 -269 -14 -469 -65 -195 -51 -253 -74 -587
-238 -277 -136 -448 -232 -649 -367 -90 -60 -245 -148 -530 -303 -96 -52 -233
-130 -305 -174 -71 -43 -157 -94 -189 -112 l-59 -33 7 164 c4 89 13 199 22
243 8 44 23 136 33 205 11 69 31 181 45 250 14 69 30 168 36 220 6 52 26 187
45 300 19 113 53 372 75 575 41 369 61 530 81 658 l11 67 136 0 c76 0 180 -7
232 -15z m2340 -1586 c61 -24 186 -104 325 -209 33 -25 126 -112 206 -195 81
-82 155 -158 165 -168 11 -10 77 -75 149 -145 71 -70 170 -160 219 -200 105
-86 356 -323 581 -548 88 -88 180 -176 203 -195 l44 -34 -7 -70 c-12 -126 -34
-258 -67 -399 l-33 -139 -190 6 c-104 4 -273 13 -375 22 -102 8 -279 19 -395
24 -268 13 -594 57 -845 115 -347 79 -397 87 -715 111 -190 14 -302 30 -595
85 -283 53 -792 132 -1235 190 -88 12 -223 33 -300 46 -196 35 -249 44 -257
44 -14 0 -9 147 8 253 l16 102 146 80 c80 44 186 106 236 139 50 32 188 110
306 174 226 121 426 235 494 281 158 108 401 249 566 328 107 52 242 118 300
147 58 30 133 63 166 74 55 19 338 93 404 105 14 3 113 4 220 3 181 -2 200 -4
260 -27z"/>
<path d="M5538 4520 c-57 -14 -188 -84 -233 -123 -118 -102 -177 -333 -125
-488 26 -75 53 -118 119 -192 101 -110 248 -180 405 -194 89 -7 152 6 251 53
111 53 187 128 225 222 57 141 64 282 19 410 -26 76 -62 114 -150 161 -35 19
-81 49 -103 69 -70 63 -134 84 -260 88 -61 2 -128 -1 -148 -6z m240 -185 c20
-9 54 -32 74 -53 21 -20 68 -52 105 -72 61 -32 68 -39 80 -80 20 -70 16 -156
-12 -234 -31 -87 -52 -110 -150 -158 -76 -38 -84 -39 -150 -34 -38 2 -99 15
-135 27 -55 19 -77 34 -146 103 -88 87 -104 119 -104 208 0 56 30 155 59 197
13 18 54 46 103 71 74 37 87 40 159 40 49 0 94 -6 117 -15z"/>
</g>
</svg>
